<svg width="44" height="35" viewBox="0 0 44 35" fill="none" xmlns="http://www.w3.org/2000/svg">
<path d="M2 32.9095V31.0913C2 24.0622 7.6982 18.364 14.7273 18.364C21.7564 18.364 27.4545 24.0622 27.4545 31.0913V32.9095" stroke="#FFBD13" stroke-width="3" stroke-linecap="round"/>
<path d="M23.818 22.0003C23.818 16.9796 27.8882 12.9094 32.9089 12.9094C37.9296 12.9094 41.9998 16.9796 41.9998 22.0003V22.9094" stroke="#FFBD13" stroke-width="3" stroke-linecap="round"/>
<path d="M14.7274 18.3633C18.744 18.3633 22.0002 15.1071 22.0002 11.0906C22.0002 7.07398 18.744 3.81787 14.7274 3.81787C10.7108 3.81787 7.45471 7.07398 7.45471 11.0906C7.45471 15.1071 10.7108 18.3633 14.7274 18.3633Z" stroke="#FFBD13" stroke-width="3" stroke-linecap="round" stroke-linejoin="round"/>
<path d="M32.9091 12.9091C35.9217 12.9091 38.3637 10.467 38.3637 7.45455C38.3637 4.44209 35.9217 2 32.9091 2C29.8966 2 27.4546 4.44209 27.4546 7.45455C27.4546 10.467 29.8966 12.9091 32.9091 12.9091Z" stroke="#FFBD13" stroke-width="3" stroke-linecap="round" stroke-linejoin="round"/>
</svg>
