<svg width="41" height="41" viewBox="0 0 41 41" fill="none" xmlns="http://www.w3.org/2000/svg">
<path d="M20.5 40C31.2695 40 40 31.2695 40 20.5C40 9.73044 31.2695 1 20.5 1C9.73044 1 1 9.73044 1 20.5C1 31.2695 9.73044 40 20.5 40Z" stroke="#FFBD13" stroke-width="2" stroke-linecap="round" stroke-linejoin="round"/>
<path d="M25.0503 34.1517V30.5189C25.0991 29.9154 25.0154 29.3085 24.8047 28.7389C24.5941 28.1693 24.2612 27.6499 23.8285 27.2152C27.9104 26.7722 32.2004 25.2658 32.2004 18.3546C32.2 16.5872 31.5019 14.8877 30.2504 13.6077C30.843 12.0616 30.8011 10.3526 30.1334 8.83567C30.1334 8.83567 28.5994 8.39265 25.0503 10.7091C22.0707 9.92278 18.9301 9.92278 15.9504 10.7091C12.4014 8.39265 10.8674 8.83567 10.8674 8.83567C10.1997 10.3526 10.1578 12.0616 10.7504 13.6077C9.48956 14.8972 8.79068 16.6121 8.80039 18.3924C8.80039 25.2531 13.0904 26.7595 17.1723 27.253C16.7447 27.6834 16.4148 28.1966 16.2043 28.7594C15.9937 29.322 15.9072 29.9214 15.9504 30.5189V34.1517" stroke="#FFBD13" stroke-width="2" stroke-linecap="round" stroke-linejoin="round"/>
<path d="M15.9492 31.6177C12.0492 32.8496 8.79924 31.6177 6.84924 27.8203" stroke="#FFBD13" stroke-width="2" stroke-linecap="round" stroke-linejoin="round"/>
</svg>
